<svg xmlns="http://www.w3.org/2000/svg" width="44" height="44" viewBox="0 0 44 44" fill="none"><style>.a{fill:white;}</style><g filter="url(#filter0_d)"><mask class="a"><path d="M37.2 20.3C33.9 22.8 29.9 23.2 28.3 21.2 26.8 19.1 28.1 15.4 31.4 12.9 34.7 10.3 38.7 9.9 40.2 12 41.8 14 40.4 17.8 37.2 20.3ZM28.5 2.4C26.2 1.3 22.8 3.3 20.9 7 19 10.7 19.3 14.6 21.6 15.8 23.9 17 27.3 15 29.2 11.3 31.1 7.6 30.8 3.6 28.5 2.4ZM14 5.7C11.5 5.1 8.7 7.5 7.8 11.1 6.8 14.7 8.1 18.2 10.5 18.8 13 19.5 15.8 17.1 16.7 13.5 17.7 9.8 16.4 6.4 14 5.7ZM38.7 27.1C37.4 24.9 33.7 24.7 30.5 26.6 27.3 28.5 25.7 31.8 27 34 28.3 36.2 32 36.4 35.2 34.6 38.4 32.7 40 29.3 38.7 27.1ZM21.4 41.2C25.6 40.4 26.8 25.5 22.3 21.8 17.5 18 2 23.6 2.6 28 3.3 32.4 9.5 33.7 12.4 35.2 15.3 36.6 15 42.3 21.4 41.2Z"/></mask><path d="M37.2 20.3C33.9 22.8 29.9 23.2 28.3 21.2 26.8 19.1 28.1 15.4 31.4 12.9 34.7 10.3 38.7 9.9 40.2 12 41.8 14 40.4 17.8 37.2 20.3ZM28.5 2.4C26.2 1.3 22.8 3.3 20.9 7 19 10.7 19.3 14.6 21.6 15.8 23.9 17 27.3 15 29.2 11.3 31.1 7.6 30.8 3.6 28.5 2.4ZM14 5.7C11.5 5.1 8.7 7.5 7.8 11.1 6.8 14.7 8.1 18.2 10.5 18.8 13 19.5 15.8 17.1 16.7 13.5 17.7 9.8 16.4 6.4 14 5.7ZM38.7 27.1C37.4 24.9 33.7 24.7 30.5 26.6 27.3 28.5 25.7 31.8 27 34 28.3 36.2 32 36.4 35.2 34.6 38.4 32.7 40 29.3 38.7 27.1ZM21.4 41.2C25.6 40.4 26.8 25.5 22.3 21.8 17.5 18 2 23.6 2.6 28 3.3 32.4 9.5 33.7 12.4 35.2 15.3 36.6 15 42.3 21.4 41.2Z" fill="#FA7393"/><path d="M37.2 20.3C33.9 22.8 29.9 23.2 28.3 21.2 26.8 19.1 28.1 15.4 31.4 12.9 34.7 10.3 38.7 9.9 40.2 12 41.8 14 40.4 17.8 37.2 20.3ZM28.5 2.4C26.2 1.3 22.8 3.3 20.9 7 19 10.7 19.3 14.6 21.6 15.8 23.9 17 27.3 15 29.2 11.3 31.1 7.6 30.8 3.6 28.5 2.4ZM14 5.7C11.5 5.1 8.7 7.5 7.8 11.1 6.8 14.7 8.1 18.2 10.5 18.8 13 19.5 15.8 17.1 16.7 13.5 17.7 9.8 16.4 6.4 14 5.7ZM38.7 27.1C37.4 24.9 33.7 24.7 30.5 26.6 27.3 28.5 25.7 31.8 27 34 28.3 36.2 32 36.4 35.2 34.6 38.4 32.7 40 29.3 38.7 27.1ZM21.4 41.2C25.6 40.4 26.8 25.5 22.3 21.8 17.5 18 2 23.6 2.6 28 3.3 32.4 9.5 33.7 12.4 35.2 15.3 36.6 15 42.3 21.4 41.2Z" fill="url(#paint0_linear)"/><path d="M37.2 20.3L37.8 21.1 37.8 21.1 37.2 20.3ZM28.3 21.2L27.5 21.8 27.5 21.8 28.3 21.2ZM31.4 12.9L30.8 12.1 30.8 12.1 31.4 12.9ZM40.2 12L41 11.4 41 11.4 40.2 12ZM28.5 2.4L29 1.6 29 1.6 28.5 2.4ZM20.9 7L20 6.5 20 6.5 20.9 7ZM21.6 15.8L22.1 14.9 22.1 14.9 21.6 15.8ZM29.2 11.3L28.3 10.8 28.3 10.8 29.2 11.3ZM14 5.7L13.7 6.7 13.7 6.7 14 5.7ZM7.8 11.1L6.8 10.9 6.8 10.9 7.8 11.1ZM10.5 18.8L10.3 19.8 10.3 19.8 10.5 18.8ZM16.7 13.5L17.7 13.7 17.7 13.7 16.7 13.5ZM38.7 27.1L37.8 27.6 37.8 27.6 38.7 27.1ZM30.5 26.6L30 25.7 30 25.7 30.5 26.6ZM27 34L27.9 33.5 27.9 33.5 27 34ZM35.2 34.6L34.7 33.7 34.7 33.7 35.2 34.6ZM21.4 41.2L21.2 40.2 21.2 40.2 21.4 41.2ZM22.3 21.8L21.6 22.6 21.6 22.6 22.3 21.8ZM2.6 28L1.7 28.1 1.7 28.1 2.6 28ZM12.4 35.2L12.9 34.3 12.9 34.3 12.4 35.2ZM36.5 19.5C35 20.7 33.4 21.3 32 21.5 30.6 21.6 29.6 21.2 29.1 20.6L27.5 21.8C28.6 23.2 30.4 23.6 32.2 23.4 34 23.3 36 22.4 37.8 21.1L36.5 19.5ZM29.1 20.6C28.6 19.9 28.5 18.9 29 17.6 29.5 16.3 30.5 14.8 32 13.7L30.8 12.1C29 13.4 27.8 15.2 27.1 16.9 26.5 18.5 26.5 20.4 27.5 21.8L29.1 20.6ZM32 13.7C33.6 12.5 35.2 11.8 36.6 11.7 38 11.6 38.9 12 39.4 12.6L41 11.4C40 10 38.2 9.5 36.4 9.7 34.6 9.9 32.6 10.7 30.8 12.1L32 13.7ZM39.4 12.6C39.9 13.3 40.1 14.3 39.6 15.6 39.1 16.9 38.1 18.3 36.5 19.5L37.8 21.1C39.5 19.7 40.8 18 41.5 16.3 42.1 14.6 42.1 12.8 41 11.4L39.4 12.6ZM29 1.6C27.4 0.7 25.6 1.1 24 2 22.5 2.9 21 4.5 20 6.5L21.8 7.4C22.7 5.7 23.9 4.4 25.1 3.7 26.3 3 27.3 3 28 3.3L29 1.6ZM20 6.5C19 8.5 18.5 10.6 18.7 12.4 18.8 14.2 19.6 15.9 21.1 16.7L22.1 14.9C21.3 14.5 20.8 13.6 20.7 12.2 20.6 10.9 20.9 9.1 21.8 7.4L20 6.5ZM21.1 16.7C22.7 17.5 24.5 17.1 26.1 16.2 27.6 15.3 29.1 13.7 30.1 11.7L28.3 10.8C27.4 12.5 26.2 13.8 25 14.5 23.8 15.2 22.8 15.3 22.1 14.9L21.1 16.7ZM30.1 11.7C31.1 9.7 31.6 7.6 31.4 5.8 31.3 4 30.5 2.4 29 1.6L28 3.3C28.8 3.7 29.3 4.6 29.4 6 29.5 7.4 29.2 9.1 28.3 10.8L30.1 11.7ZM14.2 4.8C12.6 4.3 10.9 5 9.6 6.1 8.3 7.2 7.3 8.9 6.8 10.9L8.7 11.4C9.2 9.7 10 8.4 10.9 7.6 11.9 6.8 12.9 6.5 13.7 6.7L14.2 4.8ZM6.8 10.9C6.3 12.8 6.3 14.8 6.9 16.4 7.5 18 8.6 19.4 10.3 19.8L10.8 17.9C10 17.6 9.2 16.9 8.8 15.7 8.4 14.6 8.3 13 8.7 11.4L6.8 10.9ZM10.3 19.8C11.9 20.2 13.6 19.6 14.8 18.5 16.1 17.4 17.2 15.7 17.7 13.7L15.7 13.2C15.3 14.8 14.5 16.2 13.5 17 12.6 17.8 11.6 18.1 10.8 17.9L10.3 19.8ZM17.7 13.7C18.2 11.7 18.1 9.8 17.6 8.2 17 6.5 15.9 5.2 14.2 4.8L13.7 6.7C14.5 6.9 15.2 7.6 15.7 8.8 16.1 10 16.2 11.6 15.7 13.2L17.7 13.7ZM39.5 26.6C38.7 25.2 37.1 24.4 35.4 24.3 33.7 24.2 31.7 24.7 30 25.7L31 27.4C32.4 26.6 34 26.2 35.2 26.3 36.5 26.4 37.4 26.9 37.8 27.6L39.5 26.6ZM30 25.7C28.2 26.8 26.9 28.2 26.1 29.7 25.4 31.3 25.3 33 26.1 34.5L27.9 33.5C27.4 32.8 27.4 31.7 28 30.6 28.5 29.5 29.5 28.3 31 27.4L30 25.7ZM26.1 34.5C27 36 28.6 36.7 30.3 36.8 32 36.9 33.9 36.5 35.7 35.4L34.7 33.7C33.2 34.5 31.7 34.9 30.4 34.8 29.2 34.7 28.3 34.2 27.9 33.5L26.1 34.5ZM35.7 35.4C37.4 34.4 38.8 32.9 39.5 31.4 40.2 29.8 40.4 28.1 39.5 26.6L37.8 27.6C38.2 28.4 38.2 29.4 37.7 30.5 37.2 31.7 36.1 32.8 34.7 33.7L35.7 35.4ZM21.6 42.1C22.4 42 23.1 41.5 23.6 40.9 24.1 40.3 24.5 39.5 24.9 38.7 25.5 37 26 34.8 26.1 32.6 26.2 30.4 26.1 28.1 25.6 26 25.1 24 24.3 22.1 22.9 21L21.6 22.6C22.5 23.3 23.2 24.6 23.6 26.5 24.1 28.3 24.2 30.4 24.1 32.5 24 34.6 23.6 36.5 23 38 22.7 38.7 22.4 39.2 22.1 39.6 21.8 40 21.5 40.1 21.2 40.2L21.6 42.1ZM22.9 21C21.4 19.8 19.3 19.5 17.1 19.5 14.9 19.6 12.4 20.1 10.1 20.8 7.8 21.6 5.7 22.6 4.2 23.8 3.4 24.4 2.7 25 2.3 25.7 1.8 26.4 1.5 27.3 1.7 28.1L3.6 27.8C3.6 27.6 3.7 27.3 3.9 26.8 4.2 26.4 4.7 25.9 5.4 25.4 6.7 24.4 8.6 23.5 10.7 22.7 12.9 22 15.1 21.6 17.1 21.5 19.2 21.5 20.7 21.8 21.6 22.6L22.9 21ZM1.7 28.1C2.1 30.8 4.2 32.5 6.2 33.6 7.3 34.1 8.4 34.6 9.4 35 10.4 35.4 11.3 35.7 12 36.1L12.9 34.3C12.1 33.9 11.1 33.5 10.1 33.1 9.1 32.7 8.1 32.3 7.2 31.8 5.2 30.8 3.9 29.5 3.6 27.8L1.7 28.1ZM12 36.1C12.4 36.3 12.8 36.7 13.3 37.4 13.5 37.8 13.7 38.1 14 38.5 14.2 38.9 14.5 39.3 14.8 39.7 15.4 40.6 16.2 41.4 17.3 41.8 18.5 42.3 19.9 42.5 21.6 42.1L21.2 40.2C19.8 40.4 18.8 40.3 18.1 40 17.4 39.7 16.9 39.2 16.4 38.5 16.1 38.2 15.9 37.9 15.7 37.5 15.4 37.1 15.2 36.7 15 36.3 14.5 35.6 13.8 34.8 12.9 34.3L12 36.1Z" mask="url(#path-1-inside-1)" class="a"/></g><defs><filter x="-0.4" y="-0.9" width="44.3" height="45.2" filterUnits="userSpaceOnUse" color-interpolation-filters="sRGB"><feFlood flood-opacity="0" result="BackgroundImageFix"/><feColorMatrix in="SourceAlpha" type="matrix" values="0 0 0 0 0 0 0 0 0 0 0 0 0 0 0 0 0 0 127 0"/><feGaussianBlur stdDeviation="1.5"/><feColorMatrix type="matrix" values="0 0 0 0 0.478431 0 0 0 0 0.180392 0 0 0 0 0.25098 0 0 0 0.27 0"/><feBlend mode="normal" in2="BackgroundImageFix" result="effect1_dropShadow"/><feBlend mode="normal" in="SourceGraphic" in2="effect1_dropShadow" result="shape"/></filter><linearGradient x1="40.9" y1="41.3" x2="40.9" y2="2.1" gradientUnits="userSpaceOnUse"><stop stop-color="#F0587C"/><stop offset="1" stop-color="#FC87A1"/></linearGradient></defs></svg>
