<svg xmlns="http://www.w3.org/2000/svg" width="17" height="14" fill="none" viewBox="0 0 17 14">
    <path fill="#fff" fill-rule="evenodd" d="M16.525 2.581c0-.278-.107-.556-.299-.756L14.776.312c-.191-.2-.458-.312-.725-.312-.266 0-.533.111-.725.312l-6.993 7.31-3.135-3.283c-.192-.2-.458-.311-.725-.311-.266 0-.533.11-.725.311L.298 5.852c-.191.2-.298.479-.298.757s.107.556.298.757l5.31 5.54c.192.2.458.312.725.312.266 0 .533-.111.725-.312l9.168-9.568c.192-.2.299-.479.299-.757z" clip-rule="evenodd"/>
</svg>
