<svg xmlns="http://www.w3.org/2000/svg" width="17" height="20" fill="none" viewBox="0 0 17 20">
    <path fill="#fff" fill-rule="evenodd" d="M16.482 14.082c-.677-.197-1.284-.658-1.812-1.382-.527-.724-.79-1.546-.79-2.446 0-.834.252-1.59.745-2.271.275-.384.71-.812 1.306-1.294-.39-.461-.79-.834-1.192-1.097-.71-.472-1.525-.713-2.442-.713-.561 0-1.226.131-1.983.373-.757.252-1.307.372-1.64.372-.263 0-.79-.11-1.581-.329-.803-.22-1.468-.329-2.03-.329-1.318 0-2.396.527-3.255 1.58C.948 7.61.512 8.97.512 10.649c0 1.799.573 3.631 1.685 5.518 1.135 1.887 2.27 2.841 3.451 2.841.378 0 .883-.12 1.513-.373.62-.241 1.17-.362 1.628-.362.47 0 1.055.11 1.731.351.688.23 1.216.351 1.605.351.975 0 1.96-.713 2.947-2.15.665-.954 1.123-1.876 1.41-2.742zm-4.31-12.868c0-.076-.012-.142-.012-.219-.012-.066-.035-.143-.058-.241-1.33.296-2.292.834-2.866 1.623-.573.79-.87 1.734-.894 2.82.539-.044.929-.11 1.192-.187.413-.131.826-.395 1.239-.79.481-.46.837-.965 1.066-1.514.218-.537.332-1.042.332-1.492z" clip-rule="evenodd"/>
</svg>
