<svg xmlns="http://www.w3.org/2000/svg" width="20" height="23" fill="none" viewBox="0 0 20 23">
    <path fill="#fff" fill-rule="evenodd" d="M7.647 5.172c-.284 0-.513-.239-.513-.517 0-.279.23-.517.513-.517.297 0 .526.238.526.517 0 .278-.23.517-.526.517zm5.697 0c-.297 0-.526-.239-.526-.517 0-.279.23-.517.526-.517.284 0 .513.238.513.517 0 .278-.23.517-.513.517zM2.381 7.612c-.77 0-1.39.611-1.39 1.354v5.704c0 .756.62 1.366 1.39 1.366.77 0 1.378-.61 1.378-1.366V8.966c0-.743-.621-1.353-1.378-1.353zm14.311.253H4.3V16.7c0 .809.661 1.459 1.485 1.459h.999l.013 3.01c0 .757.621 1.367 1.377 1.367.77 0 1.39-.61 1.39-1.366v-3.011h1.864v3.01c0 .757.621 1.367 1.39 1.367.77 0 1.391-.61 1.391-1.366v-3.011h1.013c.81 0 1.471-.65 1.471-1.46V7.866zM13.56 2.493L14.52.755c.054-.093.027-.212-.068-.265-.094-.04-.216-.014-.27.08l-.972 1.75c-.823-.358-1.742-.557-2.714-.557s-1.89.199-2.713.557L6.81.57C6.756.475 6.634.45 6.54.49c-.095.053-.122.172-.068.265l.959 1.738c-1.904.955-3.186 2.785-3.186 4.894h12.488c0-2.109-1.283-3.94-3.173-4.894zM20 8.966c0-.756-.621-1.353-1.39-1.353-.757 0-1.378.597-1.378 1.353v5.704c0 .756.621 1.366 1.377 1.366.77 0 1.391-.61 1.391-1.366V8.966z" clip-rule="evenodd"/>
</svg>
