<svg xmlns="http://www.w3.org/2000/svg" width="20" height="20" fill="none" viewBox="0 0 20 20">
    <path fill="#fff" d="M15.579 4.421c.2.2.312.471.312.753 0 .283-.113.554-.312.754-.2.2-.471.312-.754.312-.282 0-.553-.113-.753-.312-.047-.051-.091-.105-.132-.162-.039-.059-.072-.122-.097-.187-.027-.063-.047-.129-.06-.196-.006-.07-.006-.14 0-.209.002-.281.113-.552.31-.753.05-.048.105-.092.162-.132.116-.077.246-.131.383-.157.169-.03.342-.02.506.03.163.05.313.14.435.26zM14.115 10c0 .814-.241 1.61-.694 2.286-.452.677-1.094 1.204-1.846 1.516-.752.311-1.58.393-2.378.234s-1.531-.55-2.107-1.126c-.575-.576-.967-1.309-1.126-2.107-.159-.798-.077-1.626.234-2.378.312-.752.84-1.394 1.516-1.846.677-.453 1.472-.694 2.286-.694 1.091.001 2.137.435 2.908 1.207.772.771 1.206 1.817 1.207 2.908zm-1.277 0c0-.561-.166-1.11-.478-1.577-.312-.467-.755-.83-1.274-1.045-.518-.215-1.09-.271-1.64-.162-.55.11-1.056.38-1.453.777s-.667.903-.777 1.453c-.11.55-.053 1.122.162 1.64.215.519.578.962 1.045 1.274.467.312 1.016.478 1.577.478.753 0 1.475-.299 2.007-.831s.831-1.254.831-2.007zM20 10c0 1.978-.587 3.911-1.685 5.556-1.1 1.644-2.66 2.926-4.488 3.683-1.827.757-3.838.955-5.778.569-1.94-.386-3.722-1.338-5.12-2.737-1.399-1.399-2.351-3.18-2.737-5.12-.386-1.94-.188-3.95.57-5.778.756-1.827 2.038-3.389 3.682-4.488C6.09.586 8.022 0 10 0c2.652.002 5.194 1.057 7.069 2.931C18.944 4.806 19.998 7.35 20 10zm-1.277 0c0-1.725-.511-3.412-1.47-4.846-.958-1.435-2.32-2.553-3.915-3.213-1.594-.66-3.348-.833-5.04-.497-1.692.337-3.246 1.168-4.466 2.388-1.22 1.22-2.051 2.774-2.388 4.466-.336 1.692-.164 3.446.497 5.04.66 1.594 1.778 2.957 3.213 3.915 1.434.959 3.12 1.47 4.846 1.47 2.313-.003 4.53-.923 6.165-2.558C17.8 14.529 18.72 12.313 18.723 10z"/>
</svg>
