<svg xmlns="http://www.w3.org/2000/svg" width="44" height="45" fill="none" viewBox="0 0 44 45">
    <path fill="#fff" d="M22.156 0h-.159c-.755 0-1.504.04-2.24.114-.342.035-.681.08-1.017.13l-.066.008C9.63 1.63 2.383 8.535.488 17.401c-.004.018-.01.036-.013.054-.06.29-.113.582-.163.875-.013.074-.028.148-.04.223-.039.246-.07.496-.1.745-.015.123-.034.244-.047.368-.023.214-.038.432-.054.648-.012.158-.027.316-.036.474-.012.197-.014.397-.02.594-.003.155-.013.308-.015.463l.002.076-.002.08c0 .07.007.137.008.206.003.39.016.778.04 1.163.01.131.017.262.028.393.034.426.078.85.136 1.27l.013.112c.067.463.152.92.246 1.374.021.101.045.2.068.301.085.381.18.759.286 1.133l.064.234c.135.455.28.903.441 1.343l.023.062c.155.418.324.83.502 1.235.03.067.059.135.09.202.388.859.828 1.69 1.32 2.487l.027.048c0 .024.006.049.005.074.027.041.055.08.078.124l.071.04c.731 1.145 1.565 2.22 2.49 3.207l.018.02c.918.98 1.926 1.88 3.01 2.68l.049.035c.333.244.674.48 1.022.706l.118.077c.744.477 1.516.914 2.318 1.3l.045.021c.365.175.734.338 1.11.493l.252.102c.327.13.66.253.993.369.08.028.16.057.243.084.816.27 1.652.492 2.506.665.11.022.22.042.332.062.317.058.636.112.959.157.13.018.259.037.39.053.344.042.69.075 1.038.102.091.007.182.017.273.022.408.026.82.042 1.233.045l.159.001c12.043 0 21.91-9.799 21.995-21.844C44.084 10.025 34.286.087 22.156 0zm-2.09 42.5c-.305-.029-.607-.065-.907-.107l-.119-.016c-.3-.043-.599-.094-.895-.15-.037-.008-.075-.014-.113-.02-.297-.06-.592-.124-.884-.196l-.107-.025c-.294-.073-.584-.152-.874-.238l-.096-.028c-.29-.088-.578-.181-.863-.282l-.089-.03c-.286-.103-.57-.21-.85-.325l-.08-.032c-.283-.116-.562-.24-.838-.368-.023-.01-.047-.02-.07-.032-.279-.13-.553-.267-.823-.41l-.06-.03c-.274-.145-.543-.296-.808-.452l-.053-.031c-.267-.158-.529-.321-.788-.491l-.048-.03c-.258-.172-.514-.348-.766-.531l-.04-.029c-.252-.184-.499-.373-.743-.568l-.036-.029c-.243-.196-.482-.397-.716-.603l-.035-.03c-.233-.207-.462-.419-.685-.636l-.036-.033c-.221-.216-.44-.438-.652-.664-.013-.013-.023-.026-.036-.038-.21-.225-.416-.456-.616-.69l-.02-.024c2.865 1.365 5.954 2.369 9.201 2.947 1.335 1.53 2.862 2.948 4.582 4.224l-.038-.003zM4.41 32.695c-.403-.66-.77-1.345-1.098-2.05-.02-.042-.037-.083-.055-.125-.143-.311-.277-.628-.404-.949l-.074-.19c-.122-.318-.238-.639-.344-.965l-.045-.136c-.493-1.54-.812-3.16-.928-4.835 0-.006 0-.013-.002-.02 2.588 1.884 5.47 3.424 8.571 4.541.787 3.075 2.177 5.979 4.114 8.603-3.474-.79-6.736-2.092-9.697-3.813l-.038-.06zm-2.6-14.74c.049-.237.102-.47.157-.704.02-.083.038-.167.058-.248.051-.202.107-.402.163-.6.033-.115.065-.23.1-.345.052-.174.108-.346.164-.518.048-.143.098-.285.148-.427.051-.146.105-.291.16-.435.017-.05.039-.096.057-.144 2.066 1.498 4.333 2.76 6.757 3.745-.19 1.222-.3 2.463-.3 3.722 0 1.467.142 2.912.4 4.328-3.008-1.177-5.788-2.77-8.26-4.701.022-1.23.154-2.433.383-3.602.005-.024.008-.048.014-.072zm1.643-4.884c.198-.41.414-.811.638-1.205.09-.159.18-.316.274-.471.22-.365.45-.721.692-1.07.117-.17.24-.338.362-.504.243-.33.492-.654.754-.967.137-.166.28-.324.421-.484.21-.236.423-.466.643-.691.1-.104.2-.21.302-.31 1.555 1 3.231 1.842 5.002 2.506-1.264 2.195-2.171 4.546-2.706 6.995-2.317-.967-4.48-2.199-6.448-3.656.023-.048.043-.096.066-.143zm5.381-6.879c.266-.22.535-.437.813-.645.16-.12.323-.236.486-.351.237-.169.477-.332.722-.491.143-.092.286-.186.43-.274.348-.213.7-.416 1.06-.608.125-.066.252-.129.377-.193.326-.165.656-.322.99-.47.087-.04.173-.08.26-.117.42-.179.846-.34 1.278-.492l.278-.094c.933-.31 1.894-.557 2.88-.731l.137-.024c.514-.087 1.034-.158 1.56-.206-2.77 2.056-5.06 4.475-6.81 7.15-1.652-.597-3.216-1.362-4.675-2.269l.214-.185zM22.73 16.37c2.79.36 4.953 2.745 4.953 5.63 0 2.886-2.163 5.271-4.953 5.632V16.369zm-6.477 20.607c-2.136-2.548-3.69-5.414-4.608-8.47 3.051.933 6.292 1.46 9.654 1.525v7.404c-1.717-.035-3.402-.189-5.046-.459zm5.046 1.863v2.785c-1.291-.93-2.477-1.94-3.55-3.02 1.166.134 2.35.213 3.55.235zM11.223 26.89c-.353-1.592-.544-3.225-.544-4.889 0-1.084.083-2.155.235-3.211 3.242 1.153 6.738 1.813 10.384 1.888v7.95c-3.527-.072-6.913-.678-10.075-1.737zm-.065-9.504c.515-2.472 1.445-4.837 2.746-7.039 2.335.733 4.818 1.155 7.394 1.222v7.705c-3.566-.077-6.98-.738-10.14-1.888zm3.527-8.274c1.706-2.527 3.93-4.806 6.612-6.737v7.776c-2.296-.062-4.516-.415-6.613-1.039zm8.044 19.938c3.566-.366 6.358-3.388 6.358-7.05 0-3.66-2.792-6.682-6.358-7.048V8.888C29.642 9.27 35.153 14.994 35.153 22s-5.511 12.73-12.424 13.112v-6.063zm0 13.528v-6.064C30.416 36.129 36.557 29.78 36.557 22c0-7.781-6.141-14.132-13.828-14.515V1.423c11.085.39 19.944 9.562 19.866 20.723-.078 11.032-8.923 20.046-19.866 20.43z"/>
</svg>
