<svg xmlns="http://www.w3.org/2000/svg" width="20" height="20" fill="none" viewBox="0 0 20 20">
    <path fill="#fff" d="M9.998 0C4.519 0 .036 4.458 0 9.938c-.018 2.67 1.009 5.19 2.884 7.089C4.759 18.929 7.265 19.982 9.936 20h.066c5.479 0 9.962-4.458 9.998-9.938C20.03 4.552 15.574.036 9.998 0zm7.856 13.609L13.886 10l3.972-3.609c.516 1.116.8 2.356.791 3.662-.009 1.267-.293 2.471-.795 3.556zM10.05 1.347c2.99.017 5.621 1.56 7.163 3.884l-7.216 6.56L7.5 9.52 2.79 5.24c1.55-2.342 4.22-3.893 7.26-3.893zM2.141 6.39L6.11 10l-3.977 3.613c-.524-1.133-.795-2.382-.786-3.666.008-1.267.293-2.471.795-3.556zm7.857 12.262H9.94c-2.31-.013-4.474-.929-6.1-2.573-.4-.404-.756-.844-1.067-1.311l4.292-3.898 2.497 2.267c.125.11.28.169.436.169.155 0 .31-.058.435-.17l2.497-2.266 4.284 3.893c-1.555 2.338-4.212 3.89-7.216 3.89z"/>
</svg>
