<svg xmlns="http://www.w3.org/2000/svg" width="46" height="70" viewBox="0 0 46 70" fill="none"><style>.a{fill:#C08D5D;}.b{fill:white;}</style><g clip-path="url(#clip0)"><path d="M32 67.2C29.2 62.9 27.6 57.8 27.1 52.4 26.7 48.6 26.8 44.7 27.2 40.8 27.9 41.2 28.7 41.5 29.5 41.7 31 42 32.5 41.8 34 41.4 35.4 41.1 36.7 40.4 37.9 39.6 39.1 38.7 40.1 37.6 40.8 36.1 39.2 35.9 37.8 36 36.5 36.2 35.2 36.4 34 36.7 32.8 36.9 31.6 37.2 30.5 37.6 29.3 38 28.7 38.2 28.1 38.4 27.4 38.7 27.5 37.8 27.6 37 27.7 36.1 27.9 35.1 28.1 34 28.3 32.9 29.1 33.5 30.1 33.9 31.1 34.1 32.6 34.4 34.2 34.3 35.6 33.9 37 33.5 38.3 32.9 39.5 32 40.7 31.1 41.7 30 42.4 28.5 40.8 28.4 39.4 28.5 38.1 28.6 36.8 28.8 35.6 29.1 34.4 29.4 33.2 29.7 32.1 30.1 30.9 30.4 30.2 30.7 29.5 30.9 28.6 31.2 28.9 29.7 29.3 28.2 29.6 26.7 30.7 27.5 32 28 33.3 28.1 34.9 28.4 36.5 28.2 38 27.6 39.6 27.1 41 26.2 42.1 25.1 43.1 23.9 44 22.5 44.2 20.8 42.6 21.2 41.3 21.6 40 22L36.5 23.2 33 24.5C32.4 24.7 31.8 24.9 31.1 25.2 30.7 25.4 30.3 25.5 29.9 25.7 30.3 23.9 30.8 22.1 31.4 20.4 32.4 21.4 33.9 21.8 35.3 21.9 37 22 38.6 21.5 40 20.7 41.3 19.9 42.5 18.9 43.4 17.6 44.2 16.4 44.9 15 45 13.3 43.4 13.8 42.1 14.3 40.9 14.9 39.8 15.5 38.7 16.1 37.7 16.6L34.7 18.3C33.8 18.7 32.9 19.2 31.6 19.6 32.1 17.9 32.7 16.3 33.3 14.6 34 15.1 34.8 15.4 35.6 15.4 36.5 15.5 37.4 15.3 38.3 15 39.1 14.6 39.9 14 40.4 13.3 41 12.6 41.4 11.7 41.4 10.7 40.9 10.7 40.4 10.8 40 10.9 39.6 11 39.2 11.1 38.9 11.2 38.2 11.4 37.5 11.6 36.9 11.9 36.3 12.2 35.7 12.5 35.1 12.9 34.6 13.2 34.1 13.5 33.5 13.9 34 12.6 34.5 11.4 35 10.1 35.6 10.3 36.2 10.2 36.8 10 37.6 9.8 38.3 9.4 38.9 8.8 39.5 8.3 40 7.7 40.4 7 40.5 6.7 40.7 6.3 40.8 6 40.9 5.6 41 5.2 41 4.8 40.7 4.9 40.3 5.2 40 5.4 39.7 5.6 39.4 5.8 39.2 6 38.6 6.5 38.1 6.9 37.6 7.3 37.1 7.8 36.6 8.2 36.1 8.6 35.8 8.9 35.6 9.1 35.3 9.3 35.4 9 36.8 5.6 37.4 4.4 36.8 5.5 36.2 6.6 35.7 7.7 35.6 7.2 35.6 6.7 35.6 6.3 35.5 5.6 35.5 4.9 35.5 4.3 35.5 3.6 35.5 2.9 35.5 2.2 35.4 1.9 35.4 1.5 35.3 1.2 35.3 0.8 35.2 0.4 35.1 0 34.8 0.3 34.6 0.6 34.4 1 34.2 1.3 34 1.7 33.9 2 33.7 2.8 33.5 3.5 33.5 4.3 33.6 5.1 33.7 5.9 34.1 6.7 34.4 7.3 34.8 7.9 35.4 8.2 35.1 8.7 33.6 12.1 33.1 13.2 33 12.2 32.9 11.5 32.8 10.8 32.7 10.1 32.6 9.4 32.4 8.8 32.2 8.1 32 7.5 31.7 6.8 31.5 6.5 31.4 6.1 31.2 5.8 31 5.4 30.8 5 30.5 4.5 29.7 5.2 29.3 6.1 29.1 7 28.9 7.9 28.9 8.8 29.2 9.7 29.4 10.6 29.9 11.4 30.5 12.1 31.2 12.7 32 13.2 33 13.3 32.3 15 31.6 16.7 30.9 18.5 30.6 17.5 30.4 16.7 30.1 16 29.9 15 29.6 14.2 29.3 13.3 28.9 12.4 28.5 11.5 27.9 10.6 27.4 9.7 26.7 8.7 25.7 7.7 24.8 8.9 24.5 10.1 24.4 11.4 24.3 12.6 24.5 13.8 24.9 15 25.4 16.2 26.2 17.3 27.2 18.2 28.1 18.9 29.3 19.4 30.5 19.4 30.5 19.4 30.4 19.5 30.4 19.6 29.8 21.2 29.2 22.9 28.6 24.5 28.4 24.2 28.2 23.9 28 23.5 27.9 23.2 27.7 22.9 27.5 22.7 27.4 22.4 27.2 22.1 27.1 21.9 26.5 20.8 26 19.9 25.5 18.8 24.9 17.8 24.4 16.8 23.7 15.7 23.1 14.6 22.4 13.4 21.4 12.1 20.5 13.5 20.2 15.1 20.2 16.6 20.2 18.1 20.6 19.6 21.4 21 22.1 22.4 23.2 23.6 24.5 24.5 24.9 24.7 25.2 24.9 25.6 25 26 25.2 26.3 25.3 26.7 25.4 26.9 25.4 27.1 25.5 27.3 25.5 27.5 25.5 27.7 25.6 27.9 25.6 28 25.6 28.2 25.6 28.3 25.6 27.7 27.3 27.2 29.1 26.7 30.8 26 30 25.3 29.2 24.7 28.5L22.3 25.8C21.5 24.9 20.7 24 19.8 23.1 18.9 22.2 18 21.2 16.7 20.1 16.1 21.7 16.2 23.3 16.6 24.8 17 26.4 17.8 27.7 18.9 28.9 19.9 30.1 21.2 31 22.7 31.6 23.9 32 25.1 32.2 26.3 32.1 26 33.3 25.7 34.5 25.4 35.7 25.3 36.5 25.1 37.4 24.9 38.2 24.3 37.4 23.7 36.8 23.1 36.1L20.7 33.4C19.9 32.5 19.1 31.6 18.2 30.7 17.3 29.7 16.4 28.8 15.1 27.7 14.5 29.3 14.6 30.9 15 32.4 15.4 33.9 16.2 35.3 17.3 36.5 18.3 37.6 19.6 38.6 21.1 39.1 22.2 39.6 23.4 39.8 24.7 39.6 23.9 43.9 23.5 48.2 23.6 52.6 23.6 54.1 23.8 55.5 23.9 57L24.3 59.1C24.4 59.9 24.6 60.6 24.8 61.3 25.1 62.9 25.6 65.4 26.2 67 26.3 67 28.2 67.1 32 67.2Z" class="a"/></g><g clip-path="url(#clip1)"><path d="M26.9 64.5C26.5 62 25.5 59.5 23.9 57.3 22.8 55.7 21.5 54.3 20.1 52.9 20 53.3 19.8 53.7 19.5 54 19 54.6 18.4 55 17.7 55.4 17.1 55.7 16.4 55.9 15.6 55.9 14.9 56 14.1 55.9 13.4 55.5 14 55 14.5 54.5 15.1 54.2 15.6 53.8 16.2 53.5 16.7 53.3 17.3 53 17.8 52.8 18.4 52.5 18.7 52.4 19 52.3 19.3 52.2 19 51.9 18.7 51.6 18.4 51.3 18 51 17.6 50.6 17.1 50.3 17 50.8 16.8 51.2 16.4 51.6 16 52.2 15.3 52.7 14.7 53 14 53.3 13.3 53.5 12.6 53.6 11.8 53.6 11.1 53.6 10.3 53.2 10.9 52.6 11.4 52.2 12 51.8 12.6 51.5 13.1 51.2 13.7 50.9 14.2 50.6 14.7 50.4 15.3 50.2 15.7 50 16 49.9 16.5 49.7 15.8 49.3 15.2 48.8 14.6 48.3 14.4 49 14.1 49.6 13.7 50.1 13.1 50.7 12.4 51.1 11.7 51.4 10.9 51.7 10.1 51.8 9.3 51.8 8.6 51.7 7.8 51.4 7.1 50.8 7.9 50.4 8.5 50.2 9.1 49.9L10.9 49.3 12.6 48.6C12.9 48.5 13.2 48.4 13.5 48.2 13.7 48.2 13.9 48.1 14.2 48 13.4 47.5 12.6 47 11.9 46.5 11.8 47.2 11.4 47.9 10.9 48.4 10.3 48.9 9.5 49.3 8.7 49.4 7.9 49.6 7.2 49.5 6.4 49.4 5.7 49.2 5 48.8 4.4 48.2 5.2 47.9 5.8 47.7 6.5 47.5 7.1 47.4 7.7 47.3 8.3 47.1L10 46.8C10.4 46.7 10.9 46.5 11.5 46.3 10.8 45.8 10 45.4 9.3 44.9 9.2 45.4 8.9 45.7 8.7 46 8.3 46.3 7.9 46.6 7.5 46.7 7.1 46.8 6.6 46.9 6.1 46.8 5.7 46.7 5.3 46.5 4.9 46.1 5.1 45.9 5.3 45.8 5.5 45.7 5.7 45.6 5.9 45.5 6 45.4 6.4 45.3 6.7 45.2 7 45.1 7.3 45 7.7 44.9 8 44.9 8.3 44.8 8.6 44.8 8.9 44.7 8.4 44.4 7.8 44.1 7.2 43.8 7 44 6.7 44.2 6.4 44.3 6.1 44.5 5.7 44.6 5.3 44.6 4.9 44.6 4.5 44.5 4.1 44.4 3.9 44.3 3.8 44.2 3.6 44.1 3.4 44 3.3 43.9 3.1 43.7 3.3 43.7 3.5 43.6 3.7 43.6 3.9 43.6 4.1 43.6 4.3 43.6 4.6 43.6 4.9 43.6 5.3 43.6 5.6 43.6 5.9 43.6 6.3 43.6 6.4 43.6 6.6 43.6 6.8 43.6 6.6 43.5 5 42.7 4.4 42.4 5 42.6 5.5 42.8 6.1 43.1 6 42.9 5.8 42.7 5.7 42.5 5.5 42.2 5.3 42 5.1 41.7 4.9 41.5 4.6 41.2 4.4 40.9 4.3 40.8 4.2 40.7 4.1 40.5 4 40.3 3.9 40.2 3.8 40 4 40 4.2 40 4.4 40.1 4.6 40.2 4.8 40.3 5 40.3 5.3 40.6 5.6 40.8 5.8 41.1 6.1 41.4 6.3 41.8 6.4 42.2 6.5 42.5 6.5 42.9 6.4 43.2 6.7 43.3 8.4 44.1 8.9 44.3 8.6 43.9 8.4 43.6 8.2 43.3 8 43 7.9 42.7 7.7 42.4 7.6 42.1 7.5 41.8 7.4 41.5 7.3 41.3 7.2 41.1 7.2 40.9 7.2 40.7 7.1 40.5 7.1 40.2 7.6 40.2 8 40.4 8.4 40.7 8.8 40.9 9 41.3 9.2 41.7 9.4 42.2 9.5 42.6 9.5 43.1 9.5 43.5 9.3 44 9 44.4 9.8 44.8 10.6 45.2 11.4 45.6 11.2 45.1 11.1 44.8 10.9 44.4 10.7 44 10.5 43.6 10.4 43.1 10.2 42.7 10.1 42.2 10 41.7 9.9 41.1 9.9 40.6 9.9 39.8 10.6 40 11.2 40.4 11.6 40.8 12.1 41.2 12.4 41.8 12.6 42.4 12.8 43 12.9 43.7 12.7 44.3 12.6 44.9 12.3 45.5 11.9 45.8 11.9 45.9 12 45.9 12 45.9 12.8 46.3 13.5 46.7 14.3 47.2 14.2 47 14.2 46.8 14.2 46.6 14.1 46.4 14.1 46.3 14.1 46.1 14 46 14 45.8 14 45.7 13.9 45.1 13.8 44.6 13.6 44 13.5 43.4 13.4 42.9 13.3 42.3 13.1 41.6 13 41 13 40.1 13.8 40.4 14.4 40.9 14.9 41.4 15.4 42 15.7 42.7 15.9 43.5 16.1 44.3 16 45.1 15.8 45.8 15.7 46 15.7 46.2 15.6 46.4 15.5 46.6 15.4 46.7 15.3 46.9 15.2 47 15.2 47.1 15.1 47.1 15 47.2 15 47.3 14.9 47.4 14.8 47.4 14.8 47.4 14.7 47.5 15.5 47.9 16.3 48.4 17.1 49 17 48.4 17.1 47.9 17 47.4L17.1 45.6C17.1 45 17.1 44.4 17.2 43.8 17.2 43.2 17.2 42.5 17.4 41.7 18.1 42.1 18.6 42.7 18.9 43.4 19.3 44.1 19.4 44.9 19.4 45.7 19.4 46.5 19.2 47.3 18.8 48 18.5 48.5 18.1 49 17.6 49.3 18.1 49.7 18.6 50 19.1 50.4 19.5 50.7 19.8 50.9 20.1 51.2 20.1 50.7 20.1 50.2 20.1 49.8L20.1 48C20.2 47.4 20.2 46.8 20.2 46.2 20.3 45.5 20.3 44.8 20.4 44 21.2 44.4 21.7 45.1 22 45.8 22.3 46.5 22.5 47.3 22.5 48 22.4 48.8 22.3 49.6 21.9 50.3 21.6 50.8 21.2 51.3 20.7 51.7 22.4 53 23.9 54.5 25.3 56.3 25.8 56.8 26.2 57.4 26.6 58L27.2 58.9C27.4 59.3 27.5 59.6 27.7 59.9 28.1 60.6 28.7 61.8 29 62.6 29 62.6 28.3 63.2 26.9 64.5Z" class="a"/></g><defs><clipPath><rect width="30.5" height="67.8" class="b"/></clipPath><clipPath><rect width="15.3" height="33.9" transform="matrix(-0.760439 0.649409 0.649409 0.760439 11.6036 33.344)" class="b"/></clipPath></defs></svg>