<svg xmlns="http://www.w3.org/2000/svg" width="34" height="71" viewBox="0 0 34 71" fill="none"><style>.a{fill:#C08D5D;}</style><path d="M16.7 22.9C7.5 22.9 0 30.5 0 39.9V53.4C0 62.8 7.5 70.4 16.7 70.4 26 70.4 33.5 62.8 33.5 53.5V39.9C33.5 30.5 26 22.9 16.7 22.9ZM30.3 53.5C30.3 61.1 24.2 67.3 16.7 67.3 9.2 67.3 3.1 61 3.1 53.4V39.9C3.1 32.2 9.2 26 16.7 26 24.2 26 30.3 32.2 30.3 39.9V53.5Z" class="a"/><path d="M16.7 35.9C15.9 35.9 15.2 36.6 15.2 37.5V43C15.2 43.8 15.9 44.5 16.7 44.5 17.6 44.5 18.3 43.8 18.3 43V37.5C18.3 36.6 17.6 35.9 16.7 35.9Z" class="a"/><circle cx="17.1" cy="11.7" r="2.2" class="a"/><circle cx="17.1" cy="2.8" r="2.2" style="fill-opacity:0.3;fill:#C08D5D"/></svg>
